<?xml version="1.0" encoding="UTF-8"?>
<svg width="24px" height="12px" viewBox="0 0 24 12" version="1.1" xmlns="http://www.w3.org/2000/svg" xmlns:xlink="http://www.w3.org/1999/xlink">
    <!-- Generator: sketchtool 63.1 (101010) - https://sketch.com -->
    <title>03C01304-00D1-42F1-B3BF-7667A27F9044</title>
    <desc>Created with sketchtool.</desc>
    <g id="Page-1" stroke="none" stroke-width="1" fill="none" fill-rule="evenodd">
        <g id="Kupa-shop-main-1" transform="translate(-1057.000000, -632.000000)" fill="#C2C2C2" fill-rule="nonzero">
            <g id="Group-2" transform="translate(1027.000000, 613.000000)">
                <g id="arrow-grey" transform="translate(42.000000, 25.000000) scale(-1, 1) translate(-42.000000, -25.000000) translate(30.000000, 19.000000)">
                    <path d="M23.7250313,5.31498387 C23.72475,5.31469355 23.7245156,5.31435484 23.7241875,5.31406452 L18.8255625,0.281806452 C18.4585781,-0.0951774194 17.865,-0.0937741935 17.4997031,0.285096774 C17.1344531,0.663919355 17.1358594,1.27664516 17.5028438,1.65367742 L20.7917812,5.03225806 L0.9375,5.03225806 C0.41971875,5.03225806 0,5.46551613 0,6.00000332 C0,6.53448387 0.41971875,6.96774194 0.9375,6.96774194 L20.7917344,6.96774194 L17.5028906,10.3463226 C17.1359063,10.7233548 17.1345,11.3360806 17.49975,11.7149032 C17.8650469,12.0938226 18.4586719,12.095129 18.8256094,11.7181935 L23.7242344,6.68593548 C23.7245156,6.68564516 23.72475,6.68530645 23.7250781,6.68501613 C24.09225,6.30672581 24.0910781,5.69201613 23.7250313,5.31498387 Z" id="Path"></path>
                </g>
            </g>
        </g>
    </g>
</svg>