<?xml version="1.0" encoding="UTF-8"?>
<svg width="30px" height="23px" viewBox="0 0 30 23" version="1.1" xmlns="http://www.w3.org/2000/svg" xmlns:xlink="http://www.w3.org/1999/xlink">
    <!-- Generator: sketchtool 63.1 (101010) - https://sketch.com -->
    <title>0201E723-C668-4613-AFBF-7A7C48510E6E</title>
    <desc>Created with sketchtool.</desc>
    <g id="Page-1" stroke="none" stroke-width="1" fill="none" fill-rule="evenodd">
        <g id="Kupa-shop---product" transform="translate(-1284.000000, -631.000000)" fill="#93CFBE" fill-rule="nonzero">
            <g id="credit-card" transform="translate(1284.000000, 631.000000)">
                <path d="M27.4954687,6.7288284 L24.4427344,6.7288284 L24.4427344,2.48128544 C24.4427344,1.12001786 23.3191992,0.0125332031 21.9382031,0.0125332031 L2.50453125,0.0125332031 C1.12353516,0.0125332031 0,1.12007561 0,2.48134319 L0,13.558269 C0,14.9195366 1.12353516,16.0270212 2.50453125,16.0270212 L5.55738281,16.0270212 L5.55738281,20.2747952 C5.55738281,21.6360628 6.68091797,22.7435474 8.06191406,22.7435474 L27.4954687,22.7435474 C28.8764648,22.7435474 30,21.6360628 30,20.2747952 L30,9.19758064 C30,7.83631306 28.8764648,6.7288284 27.4954687,6.7288284 Z M1.43115234,2.48134319 C1.43115234,1.8979428 1.91267578,1.42329827 2.50453125,1.42329827 L21.9382031,1.42329827 C22.5300586,1.42329827 23.011582,1.8979428 23.011582,2.48134319 L23.011582,3.46615262 L1.43115234,3.46615262 L1.43115234,2.48134319 Z M5.55738281,9.19758064 L5.55738281,14.6162561 L2.50453125,14.6162561 C1.91267578,14.6162561 1.43115234,14.1416116 1.43115234,13.5582112 L1.43115234,8.14392522 L5.79755859,8.14392522 C5.64375,8.46366629 5.55738281,8.82089146 5.55738281,9.19758064 Z M1.43115234,6.73321791 L1.43115234,4.87691769 L23.011582,4.87691769 L23.011582,6.7288284 L8.06191406,6.7288284 C8.01351563,6.7288284 7.96558594,6.73050335 7.91789063,6.73321791 L1.43115234,6.73321791 Z M27.4954688,21.3328401 L8.06191406,21.3328401 C7.47005859,21.3328401 6.98853516,20.8581956 6.98853516,20.2747952 L6.98853516,9.19758064 C6.98853516,8.64328962 7.42341797,8.18805134 7.97431641,8.14392522 L23.7269531,8.14392522 C23.7533789,8.14392522 23.7793359,8.14230804 23.8049414,8.13953571 L27.4954102,8.13953571 C28.0872656,8.13953571 28.5688477,8.61418025 28.5688477,9.19758064 L28.5688477,20.2747952 L28.5688477,20.2747952 C28.5688477,20.8581956 28.0873242,21.3328401 27.4954688,21.3328401 Z" id="Shape"></path>
                <path d="M19.9342383,11.3360223 C19.1202539,11.3360223 18.3717773,11.615969 17.7812109,12.0824699 C17.1757617,11.6017031 16.4213086,11.335618 15.6232617,11.335618 C13.7210156,11.335618 12.1734375,12.8610879 12.1734375,14.736159 C12.1734375,16.6112302 13.7210156,18.1367001 15.6232617,18.1367001 C16.4213672,18.1367001 17.1757617,17.870615 17.7812109,17.3899637 C18.3717773,17.8564646 19.1202539,18.136469 19.9342383,18.136469 C21.8363086,18.136469 23.3837109,16.6111147 23.3837109,14.7362168 C23.3837109,12.8613189 21.8363086,11.3360223 19.9342383,11.3360223 Z M16.8722461,16.2989975 C16.5201562,16.5738039 16.0841016,16.725935 15.6232031,16.725935 C14.5100977,16.7259927 13.6045312,15.833363 13.6045312,14.7362168 C13.6045312,13.6390128 14.5100977,12.7463831 15.6232031,12.7463831 C16.0841016,12.7463831 16.5200977,12.898572 16.8722461,13.1733206 C16.6252148,13.6416119 16.4847656,14.172858 16.4847656,14.7361013 C16.4847656,15.2994023 16.6252734,15.8306484 16.8722461,16.2989975 Z M19.9342383,16.725704 C18.8213672,16.725704 17.9159766,15.8331897 17.9159766,14.736159 C17.9159766,13.6391861 18.8214258,12.7467296 19.9342383,12.7467296 C21.0471094,12.7467296 21.9525,13.6392439 21.9525,14.736159 C21.9525,15.8332475 21.0471094,16.725704 19.9342383,16.725704 Z" id="Shape"></path>
            </g>
        </g>
    </g>
</svg>