<?xml version="1.0" encoding="UTF-8"?>
<svg width="25px" height="24px" viewBox="0 0 25 24" version="1.1" xmlns="http://www.w3.org/2000/svg" xmlns:xlink="http://www.w3.org/1999/xlink">
    <!-- Generator: sketchtool 63.1 (101010) - https://sketch.com -->
    <title>160A112F-B121-467F-A830-7AA4CAC54F51</title>
    <desc>Created with sketchtool.</desc>
    <g id="Page-1" stroke="none" stroke-width="1" fill="none" fill-rule="evenodd">
        <g id="Kupa-shop-main-1" transform="translate(-1461.000000, -38.000000)" fill="#333333" fill-rule="nonzero">
            <g id="header" transform="translate(0.000000, 20.000000)">
                <g id="search" transform="translate(1461.520833, 18.000000)">
                    <path d="M23.7051035,22.1377455 L16.2589552,14.6994182 C17.4752754,13.1535273 18.2015584,11.2055273 18.2015584,9.09134545 C18.2015584,4.07832727 14.1189829,0 9.1007428,0 C4.08257553,0 0,4.07832727 0,9.09134545 C0,14.1042182 4.08257553,18.1825455 9.1007428,18.1825455 C11.2171269,18.1825455 13.1671561,17.4570909 14.7145845,16.2421091 L22.1607328,23.6804364 C22.3739729,23.8935273 22.6534637,24 22.9329545,24 C23.2124454,24 23.4919362,23.8935273 23.7051035,23.6804364 C24.1316564,23.2544727 24.1316564,22.5637091 23.7051035,22.1377455 Z M2.18409091,9.09134545 C2.18409091,5.28138182 5.28688326,2.18181818 9.1007428,2.18181818 C12.9146752,2.18181818 16.0174675,5.28138182 16.0174675,9.09127273 C16.0174675,12.9011636 12.9146752,16.0006545 9.1007428,16.0006545 C5.28688326,16.0006545 2.18409091,12.9011636 2.18409091,9.09134545 Z" id="Shape"></path>
                </g>
            </g>
        </g>
    </g>
</svg>