<svg width="29" height="24" xmlns="http://www.w3.org/2000/svg"><g id="Page-1" stroke="none" stroke-width="1" fill="none" fill-rule="evenodd"><g id="Kupa-shop---design" transform="translate(-379 -1410)" fill="#333" fill-rule="nonzero"><g id="projects" transform="translate(359 895)"><g id="size" transform="translate(20 515)"><path d="M28.893 21.31l-1.087-2.657a.694.694 0 00-.911-.383.71.71 0 00-.377.924l.442 1.08-2.357-.988V8.75a.706.706 0 00-.458-.664L15.17 4.77V2.455l.816.827a.69.69 0 00.987 0 .714.714 0 000-1L14.966.249a.69.69 0 00-.986 0l-2.007 2.035a.714.714 0 000 1 .69.69 0 00.987 0l.816-.828V4.77L4.802 8.085a.707.707 0 00-.46.664v10.537l-2.356.989.442-1.08a.71.71 0 00-.377-.925.694.694 0 00-.911.383L.053 21.31a.716.716 0 000 .541c.07.173.207.311.377.383l2.622 1.102a.697.697 0 00.911-.382.71.71 0 00-.377-.925l-1.066-.448 2.507-1.052 9.208 3.4s.13.044.239.044c.108 0 .238-.043.238-.043l9.207-3.4 2.507 1.051-1.066.448a.71.71 0 00-.377.924.697.697 0 00.911.383l2.622-1.102a.703.703 0 00.377-.383.716.716 0 000-.541zm-15.117.946l-6.841-2.527 6.84-2.812v5.339zm0-6.864l-8.039 3.29V9.839l8.039 3.29v2.263zm0-3.788L6.932 8.803l6.844-2.528v5.329zm1.394-5.329l6.844 2.528-6.844 2.8V6.276zm0 15.98v-5.338l6.842 2.812-6.842 2.527zm8.039-3.573l-8.039-3.29v-2.264l8.04-3.288v8.843z" id="Shape"/></g></g></g></g></svg>