<svg width="33" height="30" xmlns="http://www.w3.org/2000/svg"><g id="Page-1" stroke="none" stroke-width="1" fill="none" fill-rule="evenodd"><g id="Kupa-shop-main-1" transform="translate(-1100 -164)" fill="#333" fill-rule="nonzero"><g id="header" transform="translate(0 20)"><g id="3d" transform="translate(1100.145 144)"><path d="M22.023 21.345a.621.621 0 00-.626.616c0 .34.28.616.626.616a.621.621 0 00.626-.616c0-.34-.28-.616-.626-.616zm-5.381-10.842a.62.62 0 00-.625-.616.621.621 0 00-.626.616c0 .34.28.616.626.616a.621.621 0 00.625-.616zM10.01 22.577a.621.621 0 00.626-.616c0-.34-.28-.616-.626-.616a.621.621 0 00-.625.616c0 .34.28.616.625.616z" id="Path"/><path d="M31.662 25.504l-3.383-1.48v-13.52a.619.619 0 00-.384-.57L16.642 5.17V.647a.62.62 0 00-.625-.616.62.62 0 00-.626.616v4.522L4.138 9.934a.62.62 0 00-.384.57v13.52l-3.382 1.48a.612.612 0 00-.318.813.63.63 0 00.826.313l3.504-1.533L15.77 29.92a.65.65 0 00.494 0l11.386-4.822 3.504 1.533a.63.63 0 00.825-.313.612.612 0 00-.317-.813zM15.39 6.511v1.528c0 .34.28.616.626.616a.621.621 0 00.625-.616V6.511l9.428 3.992-10.053 4.258-10.054-4.258 9.428-3.992zm-7.096 16.2a.63.63 0 00-.825-.312l-2.465 1.078V11.438l10.386 4.399v12.58l-9.45-4.001 2.037-.891a.613.613 0 00.317-.813zm8.347 5.706v-12.58l10.386-4.399v12.039l-2.464-1.078a.63.63 0 00-.826.313c-.14.31.002.674.318.813l2.036.89-9.45 4.002z" id="Shape"/></g></g></g></g></svg>