<svg width="54" height="54" xmlns="http://www.w3.org/2000/svg"><g id="Page-1" stroke="none" stroke-width="1" fill="none" fill-rule="evenodd"><g id="Kupa-shop---design" transform="translate(-445 -2686)" fill="#1E7960" fill-rule="nonzero"><g id="3d-(1)" transform="translate(445 2686)"><path d="M8.722 34.138a.794.794 0 00.794-.795V27.87a.794.794 0 00-1.589 0v5.474c0 .439.356.795.795.795zm0-10.948a.794.794 0 00.794-.795v-2.2l1.883-1.136a.794.794 0 10-.821-1.36L8.31 19.067a.794.794 0 00-.384.68v2.648c0 .438.356.794.795.794zm6.852-6.784a.79.79 0 00.41-.115l4.584-2.767a.794.794 0 10-.821-1.36l-4.584 2.767a.794.794 0 00.41 1.475zm17.831-2.878l4.546 2.766a.794.794 0 10.826-1.357L34.23 12.17a.794.794 0 00-.825 1.357zm9.093 5.532l1.88 1.144v2.2a.794.794 0 001.589 0v-2.647a.794.794 0 00-.382-.679l-2.262-1.376a.794.794 0 00-.825 1.358zm2.674 8.018a.794.794 0 00-.794.794v5.468a.794.794 0 001.589 0v-5.468a.794.794 0 00-.795-.794zm-7.221 17.84l-4.546 2.766a.794.794 0 10.825 1.357l4.547-2.766a.794.794 0 10-.826-1.357zm-9.093 5.532l-1.85 1.125-1.856-1.12a.794.794 0 10-.82 1.36l2.266 1.369a.793.793 0 00.823-.002l2.263-1.376a.794.794 0 00-.826-1.357zm-8.29-2.762l-4.585-2.767a.794.794 0 10-.82 1.36l4.584 2.767a.794.794 0 10.821-1.36zM27 20.94a.794.794 0 00.794-.795v-.61a.794.794 0 00-1.588 0v.61c0 .439.355.794.794.794zm0 4.554a.794.794 0 00.794-.794v-.61a.794.794 0 00-1.588 0v.61c0 .439.355.794.794.794z" id="Path"/><path d="M50.676 41.694a3.31 3.31 0 00-2.212.845l-2.497-1.427v-2.305a.794.794 0 00-1.589 0v1.398l-2.861-1.635.002-.055V22.697c0-.547-.29-1.062-.757-1.346l-12.945-7.874-.023-.013v-3.348l1.064.647a.794.794 0 10.826-1.357l-1.89-1.15V6.618a3.33 3.33 0 002.53-3.227A3.328 3.328 0 0027 .067a3.328 3.328 0 00-3.324 3.324 3.33 3.33 0 002.53 3.227v1.647l-1.874 1.132a.794.794 0 10.82 1.36l1.054-.636v3.341l-.022.012-13.047 7.876c-.47.283-.762.8-.762 1.349v4.889a.794.794 0 001.59 0v-3.923l12.24 7.39v14.84l-12.084-7.294c-.006-.013-.012-.027-.02-.04a.796.796 0 00-.137-.176v-7.412a.794.794 0 00-1.589 0v7.54c0 .04.002.078.005.116l-2.864 1.636v-1.448a.794.794 0 00-1.589 0v2.356l-2.391 1.366a3.31 3.31 0 00-2.212-.845A3.328 3.328 0 000 45.018a3.328 3.328 0 003.324 3.324 3.328 3.328 0 003.113-4.488l2.417-1.381 1.724 1.04a.794.794 0 10.821-1.36l-.966-.582 2.843-1.625 12.908 7.792c.08.049.164.088.25.121a.792.792 0 001.134-.001c.085-.034.169-.074.249-.123l5.113-3.11a.794.794 0 10-.826-1.357l-4.31 2.622V31.053L39.93 23.67v14.837l-4.902 2.982a.794.794 0 00.825 1.357l4.818-2.93 2.837 1.62-1.01.615a.794.794 0 10.825 1.358l1.762-1.072 2.478 1.416a3.328 3.328 0 003.113 4.488A3.328 3.328 0 0054 45.018a3.328 3.328 0 00-3.324-3.324zm-47.352 5.06a1.737 1.737 0 01-1.735-1.736 1.737 1.737 0 013.471 0c0 .957-.779 1.736-1.736 1.736zM25.264 3.39c0-.957.78-1.736 1.736-1.736.957 0 1.735.779 1.735 1.736 0 .956-.778 1.735-1.735 1.735a1.738 1.738 0 01-1.735-1.735zm.942 11.926v.836a.794.794 0 001.588 0v-.83l11.402 6.935-11.402 6.935v-.93a.794.794 0 00-1.588 0v.936l-11.499-6.941 11.499-6.941zm24.47 31.437a1.737 1.737 0 01-1.736-1.736 1.737 1.737 0 111.736 1.736z" id="Shape"/></g></g></g></svg>