<?xml version="1.0" encoding="UTF-8"?>
<svg width="40px" height="20px" viewBox="0 0 40 20" version="1.1" xmlns="http://www.w3.org/2000/svg" xmlns:xlink="http://www.w3.org/1999/xlink">
    <!-- Generator: sketchtool 63.1 (101010) - https://sketch.com -->
    <title>9CE54E96-570B-49E1-BE7B-518B54960A8E</title>
    <desc>Created with sketchtool.</desc>
    <g id="Page-1" stroke="none" stroke-width="1" fill="none" fill-rule="evenodd">
        <g id="Kupa-shop-main-1" transform="translate(-1520.000000, -2086.000000)" fill="#333333" fill-rule="nonzero">
            <g id="arrow-" transform="translate(1520.000000, 2086.000000)">
                <path d="M39.5417188,8.85830645 C39.54125,8.85782258 39.5408594,8.85725806 39.5403125,8.85677419 L31.3759375,0.469677419 C30.7642969,-0.158629032 29.775,-0.156290323 29.1661719,0.47516129 C28.5574219,1.10653226 28.5597656,2.12774194 29.1714063,2.75612903 L34.6529687,8.38709677 L1.5625,8.38709677 C0.69953125,8.38709677 0,9.10919355 0,10.0000055 C0,10.8908065 0.69953125,11.6129032 1.5625,11.6129032 L34.6528906,11.6129032 L29.1714844,17.243871 C28.5598437,17.8722581 28.5575,18.8934677 29.16625,19.5248387 C29.7750781,20.156371 30.7644531,20.1585484 31.3760156,19.5303226 L39.5403906,11.1432258 C39.5408594,11.1427419 39.54125,11.1421774 39.5417969,11.1416935 C40.15375,10.5112097 40.1517969,9.48669355 39.5417188,8.85830645 Z" id="Path"></path>
            </g>
        </g>
    </g>
</svg>