<svg width="20" height="10" xmlns="http://www.w3.org/2000/svg"><g id="Page-1" stroke="none" stroke-width="1" fill="none" fill-rule="evenodd"><g id="Kupa-shop---elements" transform="translate(-146 -121)" fill="#333" fill-rule="nonzero"><g id="button/stroke" transform="translate(23 104)"><g id="arrow-black" transform="translate(123 17)"><path d="M19.77 4.43v-.002L15.688.235a.764.764 0 00-1.105.003.825.825 0 00.003 1.14l2.74 2.816H.781A.794.794 0 000 5c0 .445.35.806.781.806h16.545l-2.74 2.816a.825.825 0 00-.003 1.14c.305.316.8.317 1.105.003l4.082-4.193V5.57a.826.826 0 000-1.142z" id="Path"/></g></g></g></g></svg>