<svg width="29" height="24" xmlns="http://www.w3.org/2000/svg"><g id="Page-1" stroke="none" stroke-width="1" fill="none" fill-rule="evenodd"><g id="Kupa-shop-main-1" transform="translate(-1533 -38)" fill="#333" fill-rule="nonzero"><g id="header" transform="translate(0 20)"><g id="basket" transform="translate(1533.596 18)"><path d="M25.838 7.266h-3.251l-2.679-5.671C19.263.227 17.611-.366 16.226.27a2.72 2.72 0 00-1.34 3.636l1.586 3.359h-4.915l1.586-3.359a2.687 2.687 0 00.093-2.092C12.393-.47 9.157-.6 8.12 1.595l-2.678 5.67h-3.25c-1.42 0-2.465 1.313-2.128 2.676l2.904 11.755a2.992 2.992 0 002.92 2.265H22.14c1.39 0 2.591-.932 2.92-2.265L27.967 9.94c.336-1.361-.707-2.675-2.128-2.675zM16.484 3.17c-.31-.658.179-1.415.912-1.415.38 0 .744.213.914.574l2.331 4.936h-2.223L16.484 3.17zm-6.765-.84a1.014 1.014 0 011.339-.482.99.99 0 01.487 1.322L9.612 7.266H7.388l2.33-4.936zm16.534 7.198l-2.905 11.754a1.237 1.237 0 01-1.208.936H5.89a1.237 1.237 0 01-1.208-.936L1.777 9.53a.423.423 0 01.415-.522h23.646c.277 0 .48.256.415.522z" id="Shape"/><path d="M14.015 11.662a.876.876 0 00-.882.87v6.162c0 .48.395.87.882.87s.881-.39.881-.87v-6.161a.875.875 0 00-.881-.87zm6.069.021a.882.882 0 00-1.052.66l-1.395 6.16a.874.874 0 00.86 1.061.88.88 0 00.86-.68l1.396-6.161a.87.87 0 00-.669-1.04zm-11.086.66a.882.882 0 00-1.053-.66.87.87 0 00-.668 1.04l1.395 6.16a.88.88 0 00.86.681.874.874 0 00.86-1.06l-1.394-6.161z" id="Path"/></g></g></g></g></svg>