<svg width="30" height="32" xmlns="http://www.w3.org/2000/svg"><g id="Page-1" stroke="none" stroke-width="1" fill="none" fill-rule="evenodd"><g id="Kupa-shop---product" transform="translate(-1025 -626)" fill="#93CFBE" fill-rule="nonzero"><g id="box" transform="translate(1025 626)"><path d="M29.457 7.047l-14.394-7a.461.461 0 00-.404 0l-14.395 7a.468.468 0 00-.262.421V24.47c0 .18.102.344.262.422l14.395 7a.462.462 0 00.404 0l14.394-7a.468.468 0 00.262-.422v-17a.468.468 0 00-.262-.422zM14.86.987l13.326 6.481-3.863 1.879a.46.46 0 00-.079-.05L11.01 2.86 14.86.987zM9.96 3.39l13.307 6.472-2.726 1.325-13.3-6.47L9.96 3.39zm13.618 7.36v4.899l-2.546 1.238v-4.9l2.546-1.238zm5.212 13.427l-13.466 6.548V14.762l3.212-1.562a.47.47 0 00.216-.624.463.463 0 00-.62-.218l-3.272 1.591-1.288-.626a.463.463 0 00-.62.218.47.47 0 00.216.625l1.227.596v15.962L.931 24.176V8.214L11.185 13.2a.46.46 0 00.62-.217.47.47 0 00-.217-.625L1.535 7.468l4.613-2.243 13.95 6.784.006.008v5.614a.469.469 0 00.465.468.461.461 0 00.202-.046l3.474-1.69a.468.468 0 00.263-.422v-5.644l4.283-2.083v15.962z" id="Shape"/><path d="M4.763 22.361l-2.112-1.027a.463.463 0 00-.62.218.47.47 0 00.216.625l2.112 1.027a.46.46 0 00.62-.218.47.47 0 00-.216-.625zm1.944-1.275l-4.053-1.971a.463.463 0 00-.62.218.47.47 0 00.216.625l4.054 1.971a.46.46 0 00.62-.218.47.47 0 00-.217-.625z" id="Path"/></g></g></g></svg>