<svg width="24" height="24" xmlns="http://www.w3.org/2000/svg"><g id="Page-1" stroke="none" stroke-width="1" fill="none" fill-rule="evenodd"><g id="Kupa-shop---design" transform="translate(-478 -1410)" fill="#333" fill-rule="nonzero"><g id="projects" transform="translate(359 895)"><g id="clock" transform="translate(119 515)"><path d="M21.475 6.315a1 1 0 00-.465 1.335A9.9 9.9 0 0122 12c0 5.514-4.486 10-10 10S2 17.514 2 12 6.486 2 12 2a9.88 9.88 0 016.208 2.157 1 1 0 101.244-1.565A12.02 12.02 0 0012 0C5.384 0 0 5.384 0 12s5.384 12 12 12 12-5.384 12-12c0-1.833-.4-3.59-1.19-5.22a.999.999 0 00-1.335-.465z" id="Path"/><path d="M12 4a1 1 0 00-1 1v7a1 1 0 001 1h5a1 1 0 000-2h-4V5a1 1 0 00-1-1z" id="Path"/></g></g></g></g></svg>