<svg width="43" height="54" xmlns="http://www.w3.org/2000/svg"><g id="Page-1" stroke="none" stroke-width="1" fill="none" fill-rule="evenodd"><g id="Kupa-shop---design" transform="translate(-1182 -2686)" fill="#1E7960" fill-rule="nonzero"><g id="clock-(1)" transform="translate(1182 2686)"><path d="M21.5 49.798c9.542 0 17.305-7.802 17.305-17.393 0-9.59-7.763-17.393-17.305-17.393S4.195 22.814 4.195 32.405c0 9.59 7.763 17.393 17.305 17.393zm15.207-17.393c0 5.05-2.45 9.535-6.217 12.319l-7.44-11.853 9.969-4.159c.535-.223.789-.84.567-1.378a1.046 1.046 0 00-1.37-.57l-9.667 4.033V17.158c7.866.544 14.158 7.174 14.158 15.247zM20.451 17.158v15.523l8.268 13.173A15.055 15.055 0 0121.5 47.69c-8.385 0-15.207-6.856-15.207-15.284 0-8.073 6.292-14.703 14.158-15.247z" id="Shape"/><path d="M42.563 28.05a21.597 21.597 0 00-3.235-7.727c-.337-.5-.696-.987-1.074-1.46l3.117-3.451a1.059 1.059 0 00-.071-1.49l-4.033-3.68a1.045 1.045 0 00-1.48.073l-3.218 3.562a21.277 21.277 0 00-6.736-2.643l-.23-.044.839-2.529 2.34-1.174c.354-.178.584-.545.584-.944V3.259c0-1.79-1.458-3.259-3.237-3.259h-9.258c-1.78 0-3.237 1.47-3.237 3.259v3.284c0 .4.23.765.585.943l2.337 1.173.84 2.533c-.076.014-.153.027-.228.042a21.275 21.275 0 00-6.648 2.59l-3.17-3.51a1.044 1.044 0 00-1.48-.071l-4.033 3.679a1.057 1.057 0 00-.072 1.49l3.045 3.372a21.674 21.674 0 00-3.12 5.21 21.597 21.597 0 00-1.253 4.055A21.837 21.837 0 000 32.405c0 2.717.495 5.367 1.472 7.875a1.05 1.05 0 001.36.598c.538-.213.804-.826.593-1.367a19.502 19.502 0 01-1.327-7.106A19.434 19.434 0 017.78 18.616c3.048-3.06 6.929-4.977 11.127-5.538h5.186c4.198.56 8.08 2.478 11.127 5.538 3.664 3.684 5.681 8.581 5.682 13.79a19.429 19.429 0 01-5.682 13.787c-3.666 3.683-8.54 5.712-13.72 5.712a19.312 19.312 0 01-13.032-5.054 1.046 1.046 0 00-1.482.073c-.388.431-.356 1.1.072 1.49.955.87 1.992 1.658 3.085 2.343a21.398 21.398 0 003.483 1.755A21.29 21.29 0 0021.498 54h.002c1.459 0 2.917-.14 4.333-.433a21.189 21.189 0 004.035-1.255 21.438 21.438 0 006.834-4.627 21.815 21.815 0 002.626-3.198 21.55 21.55 0 003.234-7.727 21.836 21.836 0 000-8.71zM6.298 17.124l-.079.081-2.196-2.431 2.479-2.261 2.25 2.49a21.682 21.682 0 00-2.454 2.121zm17.17-6.156h-3.935l-.786-2.372c1.13-.293 3.181-.614 5.504.006l-.784 2.366zM17.48 6.767l-1.75-.876V3.259c0-.626.517-1.15 1.14-1.15h9.258c.623 0 1.14.524 1.14 1.15V5.89l-1.758.881c-3.657-1.22-6.84-.408-8.03-.005zm16.903 8.238l2.25-2.491 2.479 2.26-2.25 2.492-2.479-2.261z" id="Shape"/><path d="M9.438 31.364A1.052 1.052 0 008.39 32.42a1.053 1.053 0 001.05 1.054 1.052 1.052 0 001.048-1.056 1.051 1.051 0 00-1.05-1.054zm12.069 14.217c.58 0 1.05-.472 1.05-1.054a1.053 1.053 0 00-1.05-1.055 1.051 1.051 0 00-1.048 1.056c0 .582.47 1.054 1.048 1.053zM32.512 32.38v.025c0 .582.47 1.055 1.049 1.055s1.049-.473 1.049-1.055v-.03a1.05 1.05 0 00-1.051-1.052 1.051 1.051 0 00-1.047 1.057z" id="Path"/><ellipse id="Oval" cx="4.66" cy="44.072" rx="1.049" ry="1.055"/></g></g></g></svg>