<?xml version="1.0" encoding="UTF-8"?>
<svg width="24px" height="24px" viewBox="0 0 24 24" version="1.1" xmlns="http://www.w3.org/2000/svg" xmlns:xlink="http://www.w3.org/1999/xlink">
    <!-- Generator: sketchtool 63.1 (101010) - https://sketch.com -->
    <title>0584641E-A479-410D-B412-49DADD32D547</title>
    <desc>Created with sketchtool.</desc>
    <g id="Page-1" stroke="none" stroke-width="1" fill="none" fill-rule="evenodd">
        <g id="Kupa-shop---request-popup" transform="translate(-1292.000000, -242.000000)" fill="#333333" fill-rule="nonzero">
            <g id="close" transform="translate(1292.000000, 242.000000)">
                <path d="M23.4138817,0.555269923 C22.6735219,-0.185089974 21.4858612,-0.185089974 20.7455013,0.555269923 L11.9845758,9.31619537 L3.22365039,0.555269923 C2.48329049,-0.185089974 1.29562982,-0.185089974 0.555269923,0.555269923 C-0.185089974,1.29562982 -0.185089974,2.48329049 0.555269923,3.22365039 L9.31619537,11.9845758 L0.555269923,20.7455013 C-0.185089974,21.4858612 -0.185089974,22.6735219 0.555269923,23.4138817 C0.925449871,23.7840617 1.40359897,23.9691517 1.89717224,23.9691517 C2.3907455,23.9691517 2.8688946,23.7840617 3.23907455,23.4138817 L12,14.6529563 L20.7609254,23.4138817 C21.1311054,23.7840617 21.6092545,23.9691517 22.1028278,23.9691517 C22.596401,23.9691517 23.0745501,23.7840617 23.4447301,23.4138817 C24.18509,22.6735219 24.18509,21.4858612 23.4447301,20.7455013 L14.6529563,11.9845758 L23.4138817,3.22365039 C24.1542416,2.48329049 24.1542416,1.29562982 23.4138817,0.555269923 Z" id="Path"></path>
            </g>
        </g>
    </g>
</svg>