<svg width="33" height="32" xmlns="http://www.w3.org/2000/svg"><g id="Page-1" stroke="none" stroke-width="1" fill="none" fill-rule="evenodd"><g id="Kupa-shop-main-1" transform="translate(-846 -163)" fill="#2C2525" fill-rule="nonzero"><g id="header" transform="translate(0 20)"><g id="cloth" transform="translate(846.881 143)"><path d="M24.025 0a19.972 19.972 0 00-6.103 1.007 23.892 23.892 0 00-5.997 2.915 22.737 22.737 0 00-4.316 3.723.542.542 0 00-.119.225 47.13 47.13 0 00-1.014 5.367 2.436 2.436 0 01-.603-1.504.533.533 0 00-.817-.452c-.186.116-4.5 2.925-2.94 11.576A21.648 21.648 0 000 31.467a.533.533 0 00.868.416l2.669-2.133a.533.533 0 00.184-.287 23.252 23.252 0 011.511-4.055 7.36 7.36 0 001.08.085 16.581 16.581 0 005.068-.987.533.533 0 00-.168-1.04 2.183 2.183 0 01-1.709-1.082 8.373 8.373 0 005.061-.005.534.534 0 00.163-.078 64.33 64.33 0 007.006-5.924.533.533 0 00-.377-.91 7.25 7.25 0 01-3.012-.775c1.51.138 3.577.086 4.933-.932 1.645-1.233 3.657-3.421 5.98-6.507a24.507 24.507 0 002.738-4.921.533.533 0 00-.175-.625C31.727 1.637 29.48 0 24.025 0zM2.732 29.027l-1.59 1.271a20.91 20.91 0 012.008-7.126c1.853-3.705 9.41-12.456 16.2-15.628-3.7 2.637-10.57 8.39-15.024 17.284a24.101 24.101 0 00-1.595 4.199zm25.67-22.414a59.51 59.51 0 01-2.212 2.774 17.28 17.28 0 01-4.834.746.534.534 0 100 1.067c1.197-.008 2.39-.14 3.56-.392-.7.761-1.463 1.463-2.28 2.099-1.903 1.427-5.916.452-5.956.442a.534.534 0 00-.557.838 6.36 6.36 0 004.041 2.227 65.152 65.152 0 01-5.984 4.965c-3.354.923-5.24-.416-5.317-.472a.534.534 0 00-.844.533c.156 1 .697 1.899 1.506 2.507a11.501 11.501 0 01-3.765.454A47.931 47.931 0 0119.972 8.41c.456-.313.588-.927.302-1.4a1.057 1.057 0 00-1.383-.43C12.377 9.625 5.647 17.15 2.972 21.346c-.59-5.045 1.045-7.582 2.01-8.6a4.68 4.68 0 001.662 2.099.534.534 0 00.83-.445c0-1.842.847-5.425 1.021-6.144.47-.518.964-1.012 1.483-1.48A11.699 11.699 0 009.61 9.6a.534.534 0 001.068 0c.023-1.393.298-2.77.811-4.066A23.09 23.09 0 0115.955 2.9a6.564 6.564 0 00-.457 1.239.533.533 0 101.037.256 7.112 7.112 0 011.02-2.14 19.367 19.367 0 016.47-1.188c3.885 0 6.016.875 6.8 1.286a23.184 23.184 0 01-2.422 4.26z" id="Shape"/></g></g></g></g></svg>