<svg width="30" height="23" xmlns="http://www.w3.org/2000/svg"><g id="Page-1" stroke="none" stroke-width="1" fill="none" fill-rule="evenodd"><g id="Kupa-shop---product" transform="translate(-1284 -631)" fill="#93CFBE" fill-rule="nonzero"><g id="credit-card" transform="translate(1284 631)"><path d="M27.495 6.729h-3.052V2.48c0-1.361-1.124-2.468-2.505-2.468H2.505C1.124.013 0 1.12 0 2.48v11.077c0 1.362 1.124 2.469 2.505 2.469h3.052v4.248c0 1.361 1.124 2.469 2.505 2.469h19.433c1.381 0 2.505-1.108 2.505-2.47V9.199c0-1.362-1.124-2.47-2.505-2.47zM1.431 2.48c0-.583.482-1.058 1.074-1.058h19.433c.592 0 1.074.475 1.074 1.058v.985H1.432V2.48zm4.126 6.717v5.418H2.505a1.067 1.067 0 01-1.074-1.058V8.144h4.367c-.154.32-.24.677-.24 1.054zM1.431 6.733V4.877h21.58v1.852H8.062a3.46 3.46 0 00-.143.004H1.43zm26.064 14.6H8.062a1.067 1.067 0 01-1.073-1.058V9.198c0-.555.434-1.01.985-1.054h15.753a.723.723 0 00.078-.004h3.69c.592 0 1.074.474 1.074 1.058v11.077c0 .583-.482 1.058-1.074 1.058z" id="Shape"/><path d="M19.934 11.336c-.814 0-1.562.28-2.153.746a3.457 3.457 0 00-2.158-.746c-1.902 0-3.45 1.525-3.45 3.4s1.548 3.4 3.45 3.4c.798 0 1.553-.265 2.158-.746.59.466 1.34.746 2.153.746 1.902 0 3.45-1.525 3.45-3.4s-1.548-3.4-3.45-3.4zm-3.062 4.963a2.023 2.023 0 01-1.249.427c-1.113 0-2.018-.893-2.018-1.99s.905-1.99 2.018-1.99c.461 0 .897.153 1.25.427a3.339 3.339 0 000 3.126zm3.062.427c-1.113 0-2.018-.893-2.018-1.99s.905-1.99 2.018-1.99c1.113 0 2.018.893 2.018 1.99s-.905 1.99-2.018 1.99z" id="Shape"/></g></g></g></svg>