<svg width="25" height="16" xmlns="http://www.w3.org/2000/svg"><g id="Page-1" stroke="none" stroke-width="1" fill="none" fill-rule="evenodd"><g id="Kupa-shop-main-1" transform="translate(-1145 -42)" fill="#333" fill-rule="nonzero"><g id="header" transform="translate(0 20)"><g id="diler" transform="translate(1145.192 22)"><path d="M23.811 1.104a.498.498 0 00-.458-.06l-4.08 1.48a1.985 1.985 0 00-1.134 1.04c-.042.09-.07.186-.098.28-.7-.198-2.003-.613-3.297-1.278-1.955-1.004-3.449-.508-4.73.466-.65.013-1.544.09-2.424.167-.561.05-1.091.095-1.521.12a1.99 1.99 0 00-.183-.754 1.985 1.985 0 00-1.134-1.04L.672.045A.5.5 0 000 .516v9.98a.5.5 0 00.5.5h1.462c.622 0 1.2-.293 1.575-.765l.682.513c.584.438 1.224.916 1.504 1.15 1.864 1.556 4.105 3.236 4.55 3.528.418.273 1.169.563 1.74.563.223 0 .785 0 1.18-.332.408.159.847.151 1.255-.028a1.88 1.88 0 00.928-.926c.39.08.84.021 1.247-.182a1.71 1.71 0 00.814-.817c.361.033.747-.084 1.093-.348.494-.376.72-.932.656-1.48l1.27-.7c.371.502.962.821 1.606.821h1.462a.5.5 0 00.501-.499v-9.98a.499.499 0 00-.214-.41zM2.9 9.348a1.006 1.006 0 01-.938.648h-.961V1.227L4.41 2.463a.993.993 0 01.567.52.987.987 0 01.028.768L2.9 9.348zm15.022 3.21c-.17.13-.407.202-.512.097-.006-.005-.014-.005-.02-.01-.01-.009-.014-.02-.024-.029-.358-.282-1.961-1.917-2.952-2.947a.5.5 0 00-.722.69c.232.242 2.099 2.18 2.846 2.858-.056.22-.26.355-.363.406-.32.16-.655.134-.78.018-.004-.004-.01-.003-.013-.007-.006-.005-.009-.013-.015-.018-.6-.478-2.107-2.074-2.447-2.443a.502.502 0 00-.708-.03.498.498 0 00-.03.705c.017.018 1.493 1.605 2.322 2.343a.878.878 0 01-.46.52c-.158.07-.404.105-.684-.102-.72-.607-2.162-2.138-2.445-2.44a.501.501 0 00-.708-.025.498.498 0 00-.024.705c.337.36 1.331 1.41 2.087 2.121a2.17 2.17 0 01-.258.016c-.33 0-.9-.21-1.188-.4-.351-.23-2.555-1.869-4.458-3.457A48.342 48.342 0 004.82 9.945c-.322-.241-.619-.464-.837-.631L5.857 4.33a46.013 46.013 0 001.82-.137c.39-.034.778-.067 1.15-.096-.572.584-1.42 1.63-1.308 2.611.05.446.296.818.709 1.076.818.51 2.331.082 3.06-.812.471-.068.79-.188 1.137-.36.586.55 1.373 1.196 2.199 1.875 1.438 1.182 3.068 2.52 3.499 3.272.24.417-.093.718-.2.8zm.86-1.604c-.668-.89-2.113-2.08-3.522-3.237-.939-.772-1.826-1.5-2.393-2.066a.504.504 0 00-.59-.087c-.51.272-.74.385-1.315.442a.501.501 0 00-.374.23c-.392.622-1.483.917-1.83.702-.196-.123-.234-.248-.245-.343-.048-.424.383-1.16 1.098-1.873 1.771-1.765 3.037-2.11 4.675-1.269 1.556.8 3.092 1.252 3.737 1.423.018.075.032.15.06.224l1.943 5.167-1.245.687zm4.242.04h-.961c-.415 0-.792-.26-.938-.648L19.02 4.75a.988.988 0 01.028-.769.994.994 0 01.567-.52l3.409-1.236v8.77z" id="Shape"/></g></g></g></g></svg>