<svg width="24" height="24" xmlns="http://www.w3.org/2000/svg"><g id="Page-1" stroke="none" stroke-width="1" fill="none" fill-rule="evenodd"><g id="Kupa-shop---design" transform="translate(-587 -1410)" fill="#000" fill-rule="nonzero"><g id="projects" transform="translate(359 895)"><g id="discount" transform="translate(228 515)"><path d="M23.794.206a.703.703 0 00-.994 0l-2.048 2.048a2.115 2.115 0 00-.398-.143L13.99.539a2.12 2.12 0 00-2.003.554L.617 12.446a2.112 2.112 0 000 2.983l7.955 7.955a2.11 2.11 0 002.983 0l11.352-11.37a2.12 2.12 0 00.554-2.003L21.89 3.646a2.119 2.119 0 00-.143-.398L23.794 1.2a.703.703 0 000-.994zm-1.697 10.145a.707.707 0 01-.185.668l-11.351 11.37a.704.704 0 01-.995 0l-7.955-7.956a.704.704 0 010-.994l11.37-11.351a.707.707 0 01.668-.185l5.978 1.476-1.694 1.693a2.113 2.113 0 00-2.4.412 2.112 2.112 0 000 2.983c.411.411.951.617 1.492.617.54 0 1.08-.206 1.491-.617a2.113 2.113 0 00.412-2.4l1.693-1.694 1.476 5.978zm-4.575-2.878a.704.704 0 110-.995.704.704 0 010 .995z" id="Shape"/></g></g></g></g></svg>