<svg width="24" height="24" xmlns="http://www.w3.org/2000/svg"><g id="Page-1" stroke="none" stroke-width="1" fill="none" fill-rule="evenodd"><g id="Kupa-shop---product" transform="translate(-1385 -1128)" fill="#1E7960" fill-rule="nonzero"><g id="edit" transform="translate(1385 1128)"><path d="M.896 23.945h.162l7.806-1.699a.768.768 0 00.405-.202L22.495 8.818a5.097 5.097 0 001.497-3.64 5.259 5.259 0 00-1.497-3.681A5.097 5.097 0 0018.855 0a4.976 4.976 0 00-3.64 1.537L2.027 14.764a.728.728 0 00-.242.364L.087 22.934a.89.89 0 00.243.769c.15.152.353.24.566.242zM18.855 1.618a3.519 3.519 0 013.519 3.56 3.398 3.398 0 01-1.012 2.467l-4.975-5.016a3.479 3.479 0 012.468-1.01zm-3.6 2.184l4.975 4.975L8.702 20.264 3.727 15.33 15.255 3.802zM3.08 16.948l4.004 4.004-5.136 1.133 1.132-5.137z" id="Shape"/></g></g></g></svg>