<svg width="54" height="39" xmlns="http://www.w3.org/2000/svg"><g id="Page-1" stroke="none" stroke-width="1" fill="none" fill-rule="evenodd"><g id="Kupa-shop---design" transform="translate(-1421 -2694)" fill="#1E7960" fill-rule="nonzero"><g id="gift-(1)" transform="translate(1421 2694)"><path d="M48.727 0H5.273A5.28 5.28 0 000 5.273v27.844a5.28 5.28 0 005.273 5.274h16.348a1.055 1.055 0 100-2.11H5.273a3.168 3.168 0 01-3.164-3.164V20.25h22.923a3.204 3.204 0 002.212 2.448l-1.857 3.193a1.055 1.055 0 001.185 1.549l2.526-.678.675 2.526a1.055 1.055 0 001.933.255l4.808-8.329 6.024 10.71a1.055 1.055 0 001.938-.244l.676-2.526 2.526.678a1.055 1.055 0 001.19-1.54l-3.1-5.465a3.213 3.213 0 002.017-.488 3.202 3.202 0 001.433-2.09h2.673v12.868a3.168 3.168 0 01-3.164 3.164H38.18v-5.695a1.055 1.055 0 10-2.11 0v5.695h-5.48a1.055 1.055 0 100 2.11h18.137A5.28 5.28 0 0054 33.117V5.273A5.28 5.28 0 0048.727 0zM27.596 20.558a1.091 1.091 0 01-.517-.939v-7.39c0-.388.188-.73.516-.938a1.091 1.091 0 011.07-.066l5.174 2.441c-.127.347-.197.72-.197 1.111v2.256c0 .403.075.788.21 1.144l-5.187 2.447a1.093 1.093 0 01-1.07-.066zm3.557 5.724l-.29-1.085a1.055 1.055 0 00-1.293-.746l-1.073.288 1.364-2.347 4.862-2.294-3.57 6.184zM29.565 9.317a3.205 3.205 0 00-3.099.192 3.205 3.205 0 00-1.496 2.72v5.912H2.11V5.273A3.168 3.168 0 015.272 2.11H36.07v9.036c0 .174.043.338.118.483a3.201 3.201 0 00-.946.367l-5.677-2.678zm7.839 8.827h-.542a1.113 1.113 0 01-1.11-1.11v-2.257c0-.613.498-1.111 1.11-1.111h.542c.613 0 1.111.498 1.111 1.111v2.256c0 .613-.498 1.111-1.111 1.111zm8.386 8.997l-1.11-.298a1.055 1.055 0 00-1.293.746l-.28 1.045-4.788-8.514a3.2 3.2 0 00.661-.28l3.642 1.718 3.168 5.583zm.865-6.583a1.091 1.091 0 01-1.07.066l-5.173-2.44c.137-.358.213-.746.213-1.15v-2.257c0-.393-.071-.77-.2-1.117l5.16-2.435a1.093 1.093 0 011.07.066c.328.208.516.55.516.939v7.39c0 .388-.188.73-.516.938zm5.236-2.417h-2.61V12.23c0-1.11-.56-2.127-1.497-2.72a3.205 3.205 0 00-3.099-.193l-5.668 2.674a3.198 3.198 0 00-.954-.366 1.05 1.05 0 00.117-.48V2.109h10.547a3.168 3.168 0 013.164 3.164v12.868z" id="Shape"/><path d="M26.77 36.59a1.063 1.063 0 00-.746-.309c-.277 0-.55.113-.745.31a1.063 1.063 0 00-.31.745c0 .277.114.55.31.746.196.196.468.309.745.309a1.058 1.058 0 00.746-1.8zM22.307 5.695H6.75a1.055 1.055 0 100 2.11h15.557a1.055 1.055 0 100-2.11zm0 23.836H6.75a1.055 1.055 0 100 2.11h15.557a1.055 1.055 0 100-2.11zM13.29 11.39H6.75a1.055 1.055 0 100 2.11h6.54a1.055 1.055 0 100-2.11zm4.825.31a1.063 1.063 0 00-.745-.31c-.279 0-.55.113-.746.31a1.063 1.063 0 00-.309.745c0 .278.113.55.309.746.196.196.467.309.746.309a1.06 1.06 0 001.055-1.055c0-.277-.114-.55-.31-.745z" id="Path"/></g></g></g></svg>