<svg width="24" height="23" xmlns="http://www.w3.org/2000/svg"><g id="Page-1" stroke="none" stroke-width="1" fill="none" fill-rule="evenodd"><g id="Kupa-shop---product" transform="translate(-825 -2468)" fill="#333" fill-rule="nonzero"><g id="product-card" transform="translate(670 1988)"><g id="libra" transform="translate(155 480)"><path d="M23.921 11.607l-.02.01-3.438-8.556h1.569a.51.51 0 000-1.019h-9.585V.57a.51.51 0 00-1.019 0v1.467h-9.58a.51.51 0 000 1.019h1.636L.04 11.606a.51.51 0 00-.041.189 4.235 4.235 0 108.47 0 .51.51 0 00-.041-.188L4.99 3.05h6.437v15.747C9 18.98 7.1 20.458 7.1 22.246c0 .28.228.509.51.509h8.658a.51.51 0 00.509-.51c0-1.787-1.9-3.264-4.33-3.447V3.05h6.504l-3.417 8.556a.51.51 0 00-.04.188 4.235 4.235 0 108.469 0 .51.51 0 00-.04-.188zM4.232 15.019a3.219 3.219 0 01-3.173-2.705h6.326a3.219 3.219 0 01-3.153 2.705zm2.97-3.723h-5.93l2.97-7.39 2.958 7.39zm8.464 10.44H8.205c.376-1.095 1.93-1.94 3.728-1.94 1.797 0 3.356.845 3.733 1.94zm4.038-17.825l2.96 7.385h-5.929l2.97-7.385zm0 11.108v.005a3.219 3.219 0 01-3.152-2.71h6.325a3.219 3.219 0 01-3.173 2.705z" id="Shape"/></g></g></g></g></svg>