<svg width="33" height="32" xmlns="http://www.w3.org/2000/svg"><g id="Page-1" stroke="none" stroke-width="1" fill="none" fill-rule="evenodd"><g id="Kupa-shop-main-1" transform="translate(-564 -163)" fill="#333" fill-rule="nonzero"><g id="header" transform="translate(0 20)"><g id="medal" transform="translate(564.587 143)"><path d="M19.605 13.023l-4.811 4.54-2.31-2.373a.666.666 0 00-.954.927l2.77 2.84a.678.678 0 00.94.02l5.293-4.987a.664.664 0 00.027-.94.682.682 0 00-.955-.027z" id="Path"/><path d="M16.035 6.037c-5.499 0-9.97 4.466-9.97 9.96 0 5.493 4.471 9.96 9.97 9.96 5.5 0 9.97-4.467 9.97-9.96 0-5.494-4.47-9.96-9.97-9.96zm0 18.586c-4.765 0-8.636-3.873-8.636-8.626 0-4.754 3.871-8.627 8.636-8.627 4.77 0 8.636 3.862 8.636 8.627 0 4.764-3.867 8.626-8.636 8.626z" id="Shape"/><path d="M29.756 12.33l.22-3.953a.665.665 0 00-.367-.634l-3.524-1.78-1.781-3.52a.677.677 0 00-.634-.366l-3.965.213L16.402.11a.668.668 0 00-.734 0l-3.304 2.18-3.957-.22a.665.665 0 00-.634.367l-1.782 3.52-3.523 1.78a.675.675 0 00-.367.633l.22 3.953-2.183 3.3a.666.666 0 000 .734l2.176 3.306-.22 3.954a.665.665 0 00.367.633l3.524 1.78 1.781 3.52c.121.236.37.38.634.367l3.958-.22 3.303 2.18a.65.65 0 00.734 0l3.304-2.18 3.957.22a.666.666 0 00.634-.367l1.782-3.52 3.524-1.78a.676.676 0 00.367-.633l-.22-3.954 2.182-3.3a.666.666 0 000-.733l-2.169-3.3zm-1.241 6.787a.626.626 0 00-.107.406l.207 3.74-3.33 1.68a.658.658 0 00-.294.294l-1.682 3.326-3.744-.206a.73.73 0 00-.407.106l-3.123 2.06-3.123-2.06a.661.661 0 00-.367-.113h-.034l-3.744.207-1.681-3.327a.657.657 0 00-.294-.293l-3.337-1.674.207-3.74a.728.728 0 00-.107-.406l-2.062-3.12 2.062-3.12a.623.623 0 00.107-.407l-.207-3.74 3.33-1.68a.658.658 0 00.294-.293L8.761 3.43l3.744.207a.733.733 0 00.407-.107l3.123-2.06 3.123 2.06c.12.081.264.12.407.107l3.744-.207 1.682 3.327c.064.127.167.23.294.293l3.33 1.68-.207 3.74a.73.73 0 00.107.407l2.062 3.12-2.062 3.12z" id="Shape"/></g></g></g></g></svg>