<svg width="25" height="20" xmlns="http://www.w3.org/2000/svg"><g id="Page-1" stroke="none" stroke-width="1" fill="none" fill-rule="evenodd"><g id="Kupa-shop-main-1" transform="translate(-1038 -40)" fill="#333" fill-rule="nonzero"><g id="header" transform="translate(0 20)"><g id="men" transform="translate(1038.08 20)"><path d="M20.506 10.57h-2.352c-.32 0-.63.044-.925.125a3.522 3.522 0 00-3.138-1.93H9.934a3.522 3.522 0 00-3.138 1.93 3.508 3.508 0 00-.925-.124H3.519A3.523 3.523 0 000 14.09v3.762c0 1.165.947 2.113 2.112 2.113h19.801a2.115 2.115 0 002.112-2.113v-3.761a3.524 3.524 0 00-3.52-3.521zM6.415 12.287v6.271H2.112a.705.705 0 01-.704-.704v-3.761c0-1.165.947-2.113 2.111-2.113h2.352c.191 0 .376.026.552.074a3.54 3.54 0 00-.008.233zm9.788 6.271h-8.38v-6.272c0-1.164.947-2.112 2.111-2.112h4.157c1.164 0 2.112.948 2.112 2.112v6.272zm6.414-.704a.705.705 0 01-.704.704H17.61v-6.272c0-.078-.003-.155-.008-.232a2.09 2.09 0 01.552-.074h2.352c1.164 0 2.111.948 2.111 2.113v3.761z" id="Shape"/><path d="M4.695 3.92a3.132 3.132 0 00-3.127 3.13 3.132 3.132 0 003.127 3.128A3.132 3.132 0 007.822 7.05a3.132 3.132 0 00-3.127-3.13zm0 4.85c-.948 0-1.72-.772-1.72-1.72 0-.95.772-1.721 1.72-1.721s1.72.772 1.72 1.72c0 .949-.772 1.72-1.72 1.72zM12.012.034a4.184 4.184 0 00-4.178 4.18 4.184 4.184 0 004.178 4.18 4.184 4.184 0 004.179-4.18 4.184 4.184 0 00-4.178-4.18zm0 6.952a2.774 2.774 0 01-2.77-2.772 2.774 2.774 0 012.77-2.771 2.774 2.774 0 012.77 2.771 2.774 2.774 0 01-2.77 2.772zM19.33 3.92a3.132 3.132 0 00-3.127 3.13 3.132 3.132 0 003.127 3.128 3.132 3.132 0 003.127-3.129A3.132 3.132 0 0019.33 3.92zm0 4.85c-.948 0-1.72-.772-1.72-1.72 0-.95.772-1.721 1.72-1.721s1.72.772 1.72 1.72c0 .949-.772 1.72-1.72 1.72z" id="Shape"/></g></g></g></g></svg>