<svg width="33" height="32" xmlns="http://www.w3.org/2000/svg"><g id="Page-1" stroke="none" stroke-width="1" fill="none" fill-rule="evenodd"><g id="Kupa-shop-main-1" transform="translate(-360 -163)" fill="#333" fill-rule="nonzero"><g id="header" transform="translate(0 20)"><g id="miscellaneous" transform="translate(360.375 143)"><path d="M15.595 27.527a.534.534 0 00.843 0l11.212-14.4a.533.533 0 00.058-.561.445.445 0 00-.033-.05h.004L23.942 6.65a.528.528 0 00-.45-.233V6.4H8.541v.017a.528.528 0 00-.45.23l-3.738 5.867h.005a.445.445 0 00-.033.05.53.53 0 00.058.56l11.211 14.403zm1.394-20.06h5.53l-2.765 4.34-2.765-4.34zm1.792 4.8h-5.529l2.765-4.34 2.764 4.34zm-6.502-.46l-2.764-4.34h5.529l-2.765 4.34zm-6.382 1.526h5.973l3.163 11.734-9.136-11.734zM17.02 25.042l1.718-6.215a.533.533 0 00-1.028-.285l-1.687 6.098-3.048-11.307h6.087l-.66 2.533a.533.533 0 101.034.267l.73-2.8h5.97L17.02 25.042zm9.235-12.775h-5.53l2.765-4.34 2.765 4.34zM8.542 7.927l2.765 4.34h-5.53l2.765-4.34zM.534 16.533h1.602a.534.534 0 100-1.066H.534a.534.534 0 100 1.066zm29.364 0h1.601a.534.534 0 100-1.066h-1.601a.534.534 0 100 1.066zM16.55 31.467v-1.6a.534.534 0 00-1.067 0v1.6a.534.534 0 001.068 0zm-.533-28.8a.534.534 0 00.534-.534v-1.6a.534.534 0 00-1.068 0v1.6c0 .295.239.534.534.534zM5.824 25.428L4.69 26.56a.533.533 0 10.755.754l1.132-1.132a.533.533 0 00-.755-.754zm20.008-18.7a.534.534 0 00.378-.156l1.132-1.132a.533.533 0 10-.754-.754l-1.133 1.132a.533.533 0 00.378.91zm1.133 20.742a.534.534 0 00.377-.91l-1.132-1.132a.534.534 0 00-.755.754l1.133 1.132c.1.1.235.156.377.156zM5.824 6.572a.534.534 0 00.755-.754L5.446 4.686a.534.534 0 10-.755.754l1.133 1.132z" id="Shape"/></g></g></g></g></svg>