<svg width="54" height="52" xmlns="http://www.w3.org/2000/svg"><g id="Page-1" stroke="none" stroke-width="1" fill="none" fill-rule="evenodd"><g id="Kupa-shop---design" transform="translate(-689 -2687)" fill="#1E7960" fill-rule="nonzero"><g id="money" transform="translate(689 2687)"><path d="M51.952 13.814l-.011-.011c-.45-.403-1.14-.403-1.567.022a1.078 1.078 0 000 1.534 4.548 4.548 0 010 6.462 4.624 4.624 0 01-6.506 0c-.022-.022-.033-.033-.055-.044a20.251 20.251 0 00-6.166-5.624c2.508-5.875-.263-12.652-6.178-15.132-5.915-2.48-12.739.26-15.236 6.135a11.754 11.754 0 00-.898 3.764c-1.161-.326-2.092-.479-2.815-.457-1.161.011-2.016.73-2.147 1.784-.077.468-.022 1.153.23 3.384l.23 2.132C8.73 19.46 7.076 21.44 5.882 23.659l-3.177.62A3.36 3.36 0 000 27.564v6.995a3.35 3.35 0 002.705 3.286l3.188.63a17.361 17.361 0 002.29 3.406c-1.184 2.915-.308 6.255 2.146 8.246a8.161 8.161 0 005.159 1.806 8.495 8.495 0 005.761-2.252l.767-.718c2.826.424 5.718.326 8.511-.261l1.084 1.033a8.024 8.024 0 005.554 2.165h.263a8.163 8.163 0 005.673-2.491c2.3-2.415 2.574-6.049.756-8.899 2.06-2.85 3.144-6.114 3.144-9.486v-.86c-.099-1.62-.526-3.296-1.27-4.993a6.789 6.789 0 006.21-1.827 6.714 6.714 0 00.01-9.53zM26.945 2.272c5.203-.011 9.431 4.166 9.442 9.333a9.322 9.322 0 01-4.173 7.79c-.088.065-.175.195-.241.195H21.96c-.043 0-.098-.065-.153-.108a9.38 9.38 0 01-4.283-7.191c-.022-.25-.022-.468-.022-.664.011-5.156 4.228-9.345 9.442-9.355zm14.787 37.433c-.186.218-.47.718-.131 1.393.033.065.066.12.11.174 1.588 2.056 1.5 4.84-.209 6.636-1.084 1.12-2.552 1.816-4.14 1.816h-.208a5.85 5.85 0 01-4.042-1.566l-1.424-1.35a1.302 1.302 0 00-1.183-.326 21.74 21.74 0 01-8.587.272c-.066-.01-.12-.01-.187-.01-.35-.011-.679.12-.93.359l-1.074 1.011a6.278 6.278 0 01-3.998 1.654 6.026 6.026 0 01-4.042-1.295 5.011 5.011 0 01-1.336-6.114 1.18 1.18 0 00.12-.924 1.09 1.09 0 00-.262-.512 15.807 15.807 0 01-2.564-3.764 1.104 1.104 0 00-.208-.293 1.38 1.38 0 00-.777-.425l-3.527-.707a1.179 1.179 0 01-.943-1.153v-7.017a1.158 1.158 0 01.943-1.153l3.538-.707a1.38 1.38 0 00.777-.424c.088-.087.154-.174.208-.283 1.118-2.22 2.783-4.2 4.94-5.853.033-.032.066-.054.099-.087.252-.25.383-.587.372-.935 0-.044 0-.076-.01-.12l-.285-2.61c-.099-.838-.263-2.35-.241-2.764h.043c.439-.01 1.282.065 2.837.566a11.415 11.415 0 003.122 6.407h-1.04c-.603 0-1.096.49-1.096 1.088 0 .598.493 1.088 1.095 1.088h18.983c.602 0 1.095-.49 1.095-1.088 0-.598-.493-1.088-1.095-1.088h-1.14a8.7 8.7 0 001.271-1.555c2.53 1.523 4.611 3.568 6.046 5.918l.778 1.49c.8 1.643 1.26 3.307 1.37 4.83v.75c0 3.101-1.063 6.093-3.068 8.671z" id="Shape"/><path d="M15.17 25.585a2.793 2.793 0 00-2.804 2.784 2.793 2.793 0 002.804 2.785c1.545 0 2.804-1.25 2.804-2.785.011-1.533-1.248-2.784-2.804-2.784zm0 3.405a.61.61 0 110-1.219.61.61 0 01.614.61.597.597 0 01-.614.609zM26.945 5.035c-3.67 0-6.637 2.948-6.637 6.592.01 3.634 2.979 6.582 6.637 6.593 3.67 0 6.638-2.948 6.638-6.593 0-3.644-2.968-6.592-6.638-6.592zm0 11.009c-2.453 0-4.447-1.98-4.447-4.417s1.994-4.417 4.447-4.417c2.454 0 4.447 1.98 4.447 4.417s-1.993 4.417-4.447 4.417z" id="Shape"/></g></g></g></svg>