<svg width="18" height="24" xmlns="http://www.w3.org/2000/svg"><g id="Page-1" stroke="none" stroke-width="1" fill="none" fill-rule="evenodd"><g id="Kupa-shop---design" transform="translate(-379 -1355)" fill="#333" fill-rule="nonzero"><g id="projects" transform="translate(359 895)"><g id="pin" transform="translate(20 460)"><path d="M17.562 6.289c-.842-2.764-3.03-5.005-5.71-5.848C8.998-.457 6.023.03 3.69 1.778A9.251 9.251 0 001.007 4.97 9.329 9.329 0 000 9.184a9.16 9.16 0 001.796 5.48L9.001 24l7.196-9.323.009-.012c1.758-2.382 2.253-5.435 1.356-8.376zm-2.46 7.526l-6.101 7.906L2.9 13.815a7.75 7.75 0 01-1.515-4.631A7.868 7.868 0 014.51 2.91c1.976-1.48 4.502-1.89 6.932-1.126 2.25.708 4.087 2.594 4.797 4.92.762 2.504.348 5.095-1.138 7.111z" id="Shape"/><path d="M9.22 4.444c-2.663 0-4.83 2.194-4.83 4.89 0 2.695 2.167 4.888 4.83 4.888 2.662 0 4.829-2.193 4.829-4.889 0-2.695-2.167-4.889-4.83-4.889zm0 8.381c-1.903 0-3.45-1.566-3.45-3.492 0-1.925 1.547-3.492 3.45-3.492 1.902 0 3.449 1.567 3.449 3.492 0 1.926-1.547 3.492-3.45 3.492z" id="Shape"/></g></g></g></g></svg>