<svg width="25" height="24" xmlns="http://www.w3.org/2000/svg"><g id="Page-1" stroke="none" stroke-width="1" fill="none" fill-rule="evenodd"><g id="Kupa-shop-main-1" transform="translate(-1461 -38)" fill="#333" fill-rule="nonzero"><g id="header" transform="translate(0 20)"><g id="search" transform="translate(1461.52 18)"><path d="M23.705 22.138l-7.446-7.439a9.04 9.04 0 001.943-5.608C18.202 4.078 14.119 0 9.1 0 4.083 0 0 4.078 0 9.091c0 5.013 4.083 9.092 9.1 9.092a9.062 9.062 0 005.615-1.94l7.446 7.437a1.089 1.089 0 001.544 0 1.09 1.09 0 000-1.542zM2.185 9.09c0-3.81 3.102-6.91 6.916-6.91 3.814 0 6.916 3.1 6.916 6.91S12.915 16 9.101 16c-3.814 0-6.917-3.1-6.917-6.91z" id="Shape"/></g></g></g></g></svg>