<svg width="54" height="54" xmlns="http://www.w3.org/2000/svg"><g id="Page-1" stroke="none" stroke-width="1" fill="none" fill-rule="evenodd"><g id="Kupa-shop---design" transform="translate(-933 -2686)" fill="#1E7960" fill-rule="nonzero"><g id="team" transform="translate(933 2686)"><path d="M48.34 10.16l-4.5-4.5a.9.9 0 00-1.13-.118l-5 3.278-5.392-2.25-.827-5.798A.9.9 0 0030.6 0h-7.2a.9.9 0 00-.891.772l-.828 5.798-5.387 2.25-5-3.276a.9.9 0 00-1.13.117l-4.5 4.5a.9.9 0 00-.115 1.131l3.33 5.058-.559 1.29 1.653.715.751-1.736a.9.9 0 00-.074-.853l-3.197-4.85 3.464-3.465 4.79 3.138a.91.91 0 00.841.077l6.3-2.638a.9.9 0 00.54-.703L24.18 1.8h5.64l.789 5.528a.9.9 0 00.54.703l6.3 2.636c.276.114.59.085.84-.078l4.792-3.135 3.489 3.488-2.34 3.96a.9.9 0 00-.069.776l.998 2.636 1.684-.637-.845-2.231 2.48-4.192a.9.9 0 00-.138-1.095z" id="Path"/><path d="M36.636 34.464l-2.7-2.7a.9.9 0 00-.636-.264H20.7a.9.9 0 00-.636.264l-2.7 2.7a.9.9 0 00-.264.636v18a.9.9 0 00.9.9h18a.9.9 0 00.9-.9v-18a.9.9 0 00-.264-.636zM30.073 33.3h2.854L29.7 36.527 28.273 35.1l1.8-1.8zm-1.646 4.5l-1.163 1.164A.894.894 0 0027 39.6a.9.9 0 00-.264-.63l-1.163-1.17L27 36.373l1.427 1.427zm-.9-4.5l-.527.527-.527-.527h1.054zm-3.6 0l1.8 1.8-1.427 1.427-3.227-3.227h2.854zm-.415 18.9H18.9V35.473l.9-.9 3.864 3.863 1.485 1.485L23.512 52.2zm1.817 0l1.663-12.481a.81.81 0 00.008-.114.82.82 0 00.018.171L29.502 52.2h-4.173zm9.771 0h-3.762l-2.46-12.304 1.458-1.46 3.864-3.863.9.9V52.2zm-1.8-40.5h-8.1a5.405 5.405 0 00-5.4 5.4v5.4a7.208 7.208 0 007.2 7.2 7.208 7.208 0 007.2-7.2v-9.9a.9.9 0 00-.9-.9zm-.9 10.8a5.4 5.4 0 11-10.8 0v-3.6h7.2a5.37 5.37 0 003.6-1.386V22.5zm-3.6-5.4h-7.2a3.6 3.6 0 013.6-3.6h7.2a3.6 3.6 0 01-3.6 3.6zm24.936 20.964l-2.7-2.7a.9.9 0 00-.636-.264h-7.2a.9.9 0 00-.636.264l-2.7 2.7a.9.9 0 00-.264.636v14.4a.9.9 0 00.9.9h12.6a.9.9 0 00.9-.9V38.7a.9.9 0 00-.264-.636zM52.2 52.2h-4.5V38.7h-1.8v13.5h-4.5V39.073l1.8-1.8 2.064 2.063.636-.636.636-.636-1.163-1.164h2.925l-1.215 1.144.617.656.617.656 2.146-2.02 1.737 1.737V52.2zm-4.5-32.4h-1.77a4.51 4.51 0 00-4.5 4.485l-.015 4.506a5.391 5.391 0 005.373 5.409h.018a5.4 5.4 0 005.394-5.391V24.3a4.505 4.505 0 00-4.5-4.5zm-4.47 4.491A2.7 2.7 0 0145.9 21.6a2.7 2.7 0 01-2.67 2.7v-.009zm7.17 4.515a3.6 3.6 0 01-3.591 3.594 3.591 3.591 0 01-3.591-3.591V28.8l.009-2.7a4.5 4.5 0 003.573-1.8 4.5 4.5 0 003.6 1.8v2.706zM47.7 21.6a2.7 2.7 0 012.7 2.7 2.7 2.7 0 01-2.7-2.7zM14.136 38.064l-2.7-2.7a.9.9 0 00-.636-.264H3.6a.9.9 0 00-.636.264l-2.7 2.7A.9.9 0 000 38.7v14.4a.9.9 0 00.9.9h12.6a.9.9 0 00.9-.9V38.7a.9.9 0 00-.264-.636zM12.6 52.2H8.1V38.7H6.3v13.5H1.8V39.073l1.8-1.8 2.064 2.063.636-.636.636-.636L5.773 36.9h2.925l-1.215 1.144.617.656.617.656 2.146-2.02 1.737 1.737V52.2zM8.1 19.8H6.33a4.51 4.51 0 00-4.5 4.485l-.015 4.506A5.391 5.391 0 007.188 34.2h.018a5.4 5.4 0 005.394-5.391V24.3a4.505 4.505 0 00-4.5-4.5zm0 1.8a2.7 2.7 0 012.534 1.8H9a2.7 2.7 0 01-2.534-1.8H8.1zm-3.6.727v.165a.887.887 0 01-.266.637.857.857 0 01-.423.225c.147-.391.383-.742.689-1.027zm6.3 6.482A3.6 3.6 0 017.209 32.4a3.591 3.591 0 01-3.591-3.591V28.8l.012-3.607a2.676 2.676 0 002.252-1.26A4.48 4.48 0 009 25.2h1.8v3.609z" id="Shape"/></g></g></g></svg>