<svg width="25" height="24" xmlns="http://www.w3.org/2000/svg"><g id="Page-1" stroke="none" stroke-width="1" fill="none" fill-rule="evenodd"><g id="Kupa-shop-main-1" transform="translate(-833 -38)" fill="#333" fill-rule="nonzero"><g id="header" transform="translate(0 20)"><g id="telephone" transform="translate(833.868 18)"><path d="M23.407 17.702l-2.987-2.984a2.116 2.116 0 00-2.986 0l-1.358 1.356a1.603 1.603 0 01-2.262 0l-5.885-5.883a1.596 1.596 0 010-2.26l1.358-1.356a2.107 2.107 0 000-2.984L6.3.617A2.115 2.115 0 003.316.615L2.228 1.693a7.608 7.608 0 000 10.758l9.323 9.319a7.617 7.617 0 0010.77 0l1.086-1.085a2.11 2.11 0 000-2.983zM4.309 1.612a.706.706 0 01.996 0l2.986 2.974a.702.702 0 010 .994l-.497.498-3.98-3.976.495-.49zm8.237 19.164l-9.323-9.319a6.178 6.178 0 01-.388-8.344l3.968 3.964a3 3 0 00.13 4.109l5.885 5.882a3.007 3.007 0 004.113.132l3.968 3.964a6.182 6.182 0 01-8.353-.388zm9.865-1.085l-.497.497-3.983-3.978.498-.498a.705.705 0 01.996 0l2.986 2.984a.703.703 0 010 .995z" id="Shape"/></g></g></g></g></svg>