<svg width="33" height="32" xmlns="http://www.w3.org/2000/svg"><g id="Page-1" stroke="none" stroke-width="1" fill="none" fill-rule="evenodd"><g id="Kupa-shop-main-1" transform="translate(-1406 -163)" fill="#333" fill-rule="nonzero"><g id="header" transform="translate(0 20)"><g id="world" transform="translate(1406.464 143)"><path d="M24.254 29.001a.626.626 0 00-.855-.227l-.024.014a.625.625 0 10.628 1.081l.024-.014a.625.625 0 00.227-.854z" id="Path"/><path d="M29.887 8.005A15.906 15.906 0 0020.164.552 15.922 15.922 0 008.014 2.15a15.893 15.893 0 00-7.461 9.713A15.877 15.877 0 002.153 24a16.006 16.006 0 008.584 7.103 16.08 16.08 0 005.293.896c1.944 0 3.884-.353 5.718-1.057a.625.625 0 10-.45-1.167 14.677 14.677 0 01-14.113-1.937l.56-2.923.27-.088a1.946 1.946 0 001.25-2.45l-.198-.609a.69.69 0 010-.43 1.943 1.943 0 00-1.475-2.515l-1.412-.276-2.725-2.07a.626.626 0 00-.572-.096l-1.595.517c-.034-.57-.035-1.14-.002-1.706.063.059.104.098.129.125.031.052.07.1.115.14.13.119.248.173.496.173.228 0 .565-.046 1.121-.128a63.77 63.77 0 001.058-.167.626.626 0 00.414-.968l-.767-1.124 1.098-.785a.626.626 0 00.18-.197l1.703-2.97.686-.736c.702-.75.902-1.85.51-2.8a2.875 2.875 0 00-1.14-1.34 14.82 14.82 0 011.75-1.184 14.681 14.681 0 017.21-1.97l-1.118 1.4-4.142 1.45a.625.625 0 00-.372.352L9.06 7.265a.625.625 0 00.07.602l1.69 2.364c-.243.22-.478.542-.76.94a6.51 6.51 0 01-.32.434c-.07.08-.14.16-.21.237-.363.409-.739.83-1.006 1.395-.587 1.241-.468 2.684.31 3.765.752 1.045 1.992 1.577 3.315 1.421.215-.025.417-.075.611-.123.536-.132.706-.146.878.015.084.079.092.093.09.359-.001.169-.002.38.056.62.093.383.335.649.529.862.096.106.196.216.227.29.195.466.11.725-.076 1.292l-.049.149c-.283.874.111 1.742.46 2.507.112.249.219.484.289.69.562 1.668.984 2.05 1.322 2.204.178.08.361.116.546.116.902 0 1.843-.837 2.276-1.367.271-.333.338-.667.387-.91.024-.121.043-.217.08-.28.056-.095.122-.17.205-.263.168-.189.377-.424.512-.85.103-.322.177-.402.425-.665l.138-.148c.833-.905.618-1.597.391-2.33-.191-.616.143-1.01.952-1.763.35-.326.713-.664.994-1.069.122-.177.495-.717.264-1.252-.226-.524-.801-.612-1.263-.683-.183-.028-.458-.07-.546-.127-.387-.253-.624-.78-.853-1.291-.046-.102-.09-.202-.136-.3a10.074 10.074 0 01-.25-.605c-.227-.589-.485-1.256-.924-1.72-.394-.419-1.139-.62-1.795-.798-.22-.06-.43-.116-.567-.166a.625.625 0 00-.36-.023c-.319.075-.518.158-.666.276a.776.776 0 00-.223.3c-.229-.11-.544-.32-.738-.449l-.012-.008a.885.885 0 00-.055-.602c-.35-.738-1.51-.68-1.739-.66-.13.01-.294.016-.468.022-.274.01-.576.02-.875.054l.016-.043a1.6 1.6 0 011.502-1.055h.356a.625.625 0 100-1.25h-.356c-.997 0-1.91.524-2.422 1.349l-.933-1.306.918-2.223 4.048-1.418a.626.626 0 00.282-.2l1.8-2.255c4.598.437 8.926 3.012 11.407 7.304a14.576 14.576 0 011.474 3.577l-.265.236a1.669 1.669 0 00-.558 1.23l-.432-1.187a1.56 1.56 0 00-.281-.483l-.771-.902a1.569 1.569 0 00-1.194-.55h-.943a.905.905 0 00-.754 1.408l.095.143a6.935 6.935 0 01-2.065 1.226l-1.294-2.475v-.552c0-.17-.07-.334-.193-.452l-1.165-1.11a.627.627 0 00-.224-.138l-1.049-.368a.626.626 0 00-.414 1.18l.92.322.874.833v.438c0 .101.025.2.071.29l1.62 3.098a.626.626 0 00.77.297l.472-.174a8.189 8.189 0 002.935-1.877.624.624 0 00.079-.788l-.034-.05h.3c.092 0 .18.04.242.111l.77.902a.311.311 0 01.057.098l.851 2.336a.625.625 0 001.03.228l.405-.404a1.95 1.95 0 00.517-.94c.626 5.013-1.341 10.199-5.5 13.46a.624.624 0 10.772.983 15.985 15.985 0 003.965-20.571zM2.958 17.672l2.58 1.96a.625.625 0 00.259.115l1.555.303a.686.686 0 01.466.33.685.685 0 01.06.568 1.93 1.93 0 00-.001 1.207l.198.61a.695.695 0 01-.446.874l-.622.202a.625.625 0 00-.42.477l-.501 2.61a14.914 14.914 0 01-2.85-3.552 14.658 14.658 0 01-1.818-5.204l1.54-.5zm3.646-9.968l-.736.787a.628.628 0 00-.085.116l-1.671 2.915-1.486 1.06a.625.625 0 00-.153.861l.556.814c-.32.048-.608.087-.799.108l-.115-.108a31.713 31.713 0 00-.663-.591 14.767 14.767 0 014.406-8.36c.457.143.831.483 1.014.927.206.499.1 1.076-.268 1.47zm5.101 3.415c.28-.157.927-.18 1.4-.197.19-.006.368-.013.528-.026a1.83 1.83 0 01.267 0 .624.624 0 00.288.778c.117.063.28.172.453.287.49.326 1.044.695 1.564.728.474.03.737-.239.85-.354l.027-.026a.67.67 0 00.167-.205c.1.029.205.057.313.086.37.1 1.06.287 1.212.448.27.287.482.832.668 1.313.094.243.183.473.282.686.043.091.085.185.128.28.289.644.616 1.373 1.31 1.826.315.206.7.265 1.041.317l.136.021c-.202.282-.49.55-.793.832-.775.72-1.739 1.618-1.295 3.048.21.676.22.749-.117 1.115l-.13.138c-.288.307-.516.55-.704 1.143-.055.172-.126.252-.255.397-.103.116-.232.26-.35.463a2.024 2.024 0 00-.227.664c-.037.185-.058.277-.13.366a3.646 3.646 0 01-.79.698c-.294.187-.466.212-.524.209-.067-.072-.309-.385-.674-1.468a8.804 8.804 0 00-.336-.808c-.267-.587-.542-1.193-.408-1.607l.047-.143c.214-.652.416-1.268.041-2.164-.114-.273-.295-.473-.455-.649-.104-.113-.22-.242-.239-.317a1.35 1.35 0 01-.02-.316c.002-.326.005-.82-.486-1.28-.693-.647-1.5-.447-2.034-.315-.164.04-.32.079-.457.095-.879.103-1.663-.229-2.153-.91-.513-.712-.587-1.67-.194-2.501.19-.402.477-.725.81-1.099l.219-.248c.122-.14.256-.33.398-.532.17-.24.485-.688.622-.773z" id="Shape"/><path d="M25.653 21.517l-.3-1.133a.625.625 0 00-1.156-.138c-.068.127-.13.26-.19.39-.1.217-.204.442-.312.566-.06.07-.216.145-.367.218-.36.174-.854.411-1.042 1.011-.117.373-.073.667-.041.882.027.187.033.251-.016.369l-.007.014c-.199.467-.57 1.336-.05 2.075.37.527.76.663 1.063.663.06 0 .116-.005.167-.014.638-.104 1.118-.767 1.51-2.087l.736-2.477a.624.624 0 00.005-.339zm-1.94 2.46c-.2.673-.377.988-.479 1.127a1.2 1.2 0 01-.038-.052c-.12-.17.06-.589.177-.866l.007-.015c.19-.447.14-.79.102-1.04-.024-.162-.032-.23-.002-.325.024-.078.17-.154.392-.26.098-.048.205-.1.314-.162l-.473 1.594z" id="Shape"/><path d="M16.894 7.429l-.042-.015a.626.626 0 00-.414 1.18l.042.014a.625.625 0 10.414-1.18z" id="Path"/></g></g></g></g></svg>